<svg xmlns="http://www.w3.org/2000/svg" data-name="Слой 2" viewBox="0 0 101 101" fill="#1761a0">
  <path d="M72 62.24V34l.49-.18.66-.24.55-.25.55-.27.57-.32.46-.28.59-.41.35-.27c.21-.16.42-.33.62-.5l.23-.21c.23-.21.45-.42.66-.64a13.53 13.53 0 002.47-3.62l.06-.12c.13-.28.24-.56.35-.85l.11-.31c.09-.25.17-.51.24-.77s.08-.31.12-.47.11-.45.15-.68.07-.45.1-.68.05-.36.07-.54c0-.42.06-.84.06-1.27A13.49 13.49 0 0066.45 7.69l-.45.08c-.36.06-.72.11-1.07.19-.18 0-.35.11-.53.16-.33.09-.66.18-1 .3s-.34.15-.51.22-.59.24-.88.38a13.44 13.44 0 00-11.73-6.83h-.13A13.46 13.46 0 0038.44 9l-.19-.08c-.4-.19-.8-.36-1.21-.51l-.28-.08c-.39-.13-.78-.25-1.19-.35-.18 0-.36-.06-.55-.1s-.64-.13-1-.17a13.49 13.49 0 00-15 13.4c0 .44 0 .87.07 1.29v.35c0 .32.08.63.14.94 0 .11 0 .22.07.33q.11.49.25 1l.07.22a13.39 13.39 0 005.38 7q.47.32 1 .59l.15.09c.28.15.57.28.86.41a13.38 13.38 0 001.3.51l.7.2v28.2C29 67.32 39.82 70 50.5 70S72 67.32 72 62.24zM50.5 67c-12 0-18.5-3.13-18.5-4.73V34.55h.52A13.49 13.49 0 0039 32.92a1.5 1.5 0 10-1.44-2.63 10.38 10.38 0 01-7.44 1 10.58 10.58 0 01-2.12-.76l-.42-.2-.2-.12c-.23-.13-.46-.26-.67-.41l-.09-.06c-.26-.18-.51-.36-.74-.56a10.54 10.54 0 01-3-4c-.12-.29-.23-.58-.32-.88l-.06-.18c-.07-.24-.14-.49-.19-.75l-.06-.26c0-.24-.08-.48-.11-.73v-.27c0-.33-.05-.67-.05-1A10.49 10.49 0 0134 10.71a10.45 10.45 0 014.22 1.61h.07a1.5 1.5 0 002.22-.67 10.39 10.39 0 0119.29.06 1.5 1.5 0 002.24.67l.56-.35.2-.03.54-.29.15-.08.54-.24.18-.08.52-.18.21-.07.51-.14.25-.07.49-.09.27-.05.51-.06h1.06a10.5 10.5 0 0110.49 10.43c0 .33 0 .66-.05 1 0 .14 0 .28-.06.42s0 .35-.08.53-.07.35-.12.53-.06.25-.1.37-.12.4-.19.59l-.09.25c-.08.22-.17.44-.27.65l-.05.11a10.61 10.61 0 01-1.91 2.79c-.16.17-.33.33-.5.48l-.19.17-.47.38-.29.22-.45.31-.37.22-.44.25-.44.21-.42.19-.53.25-.39.14A10.48 10.48 0 0163 30.3a1.5 1.5 0 10-1.44 2.63A13.5 13.5 0 0068 34.57h1v27.67C69 63.85 62.47 67 50.5 67z"/>
  <path d="M61.85 18.7a1.5 1.5 0 00-1.95.84 10.49 10.49 0 01-19.51 0 1.5 1.5 0 00-2.79 1.1 13.49 13.49 0 0025.09 0 1.5 1.5 0 00-.84-1.94zM43.54 79.85c-3.19 0-4.9 1.2-7 4.95-2.31 4.07-4.74 6.14-7.23 6.14a5.41 5.41 0 01-5.4-5.4 1.5 1.5 0 00-3 0 8.41 8.41 0 008.4 8.4c3.65 0 7-2.58 9.84-7.66 1.85-3.28 2.77-3.43 4.39-3.43a2.36 2.36 0 012.09 1 1.5 1.5 0 102.51-1.64 5.37 5.37 0 00-4.6-2.36zM77.62 84a1.5 1.5 0 00-1.5 1.5 5.41 5.41 0 01-5.4 5.4c-2.49 0-4.92-2.07-7.23-6.14-2.12-3.74-3.83-4.95-7-4.95a5.37 5.37 0 00-4.59 2.4 1.5 1.5 0 002.51 1.65 2.36 2.36 0 012.09-1c1.62 0 2.55.15 4.41 3.42 2.88 5.08 6.19 7.66 9.84 7.66a8.41 8.41 0 008.4-8.4A1.5 1.5 0 0077.62 84z"/>
</svg>
