<svg xmlns="http://www.w3.org/2000/svg" viewBox="0 0 100.353 100.353" fill="#1761a0">
  <path d="M87.225 21.452H71.377v-6.845a1.5 1.5 0 10-3 0v6.845H29.912v-6.845a1.5 1.5 0 10-3 0v6.845H12.776a1.5 1.5 0 00-1.5 1.5v62.44a1.5 1.5 0 001.5 1.5h74.449a1.5 1.5 0 001.5-1.5v-62.44a1.5 1.5 0 00-1.5-1.5zm-1.5 62.44H14.276v-59.44h12.636v4.541a1.5 1.5 0 103 0v-4.541h38.465v4.541a1.5 1.5 0 103 0v-4.541h14.348v59.44z"/>
  <path d="M70.898 64.342l-5.061-5.063a1.5 1.5 0 10-2.121 2.121l5.061 5.063-5.061 5.063a1.5 1.5 0 102.122 2.121l5.061-5.063 5.061 5.063c.293.293.677.439 1.061.439s.768-.146 1.061-.439a1.5 1.5 0 000-2.121l-5.061-5.063 5.061-5.063a1.5 1.5 0 10-2.121-2.121l-5.063 5.063zM33.948 38.578h-9.249a1.5 1.5 0 00-1.5 1.5v9.247a1.5 1.5 0 001.5 1.5h9.249a1.5 1.5 0 001.5-1.5v-9.247a1.5 1.5 0 00-1.5-1.5zm-1.5 9.247h-6.249v-6.247h6.249v6.247zM55.021 38.578h-9.246a1.5 1.5 0 00-1.5 1.5v9.247a1.5 1.5 0 001.5 1.5h9.246a1.5 1.5 0 001.5-1.5v-9.247a1.5 1.5 0 00-1.5-1.5zm-1.5 9.247h-6.246v-6.247h6.246v6.247zM33.948 59.848h-9.249a1.5 1.5 0 00-1.5 1.5v9.247a1.5 1.5 0 001.5 1.5h9.249a1.5 1.5 0 001.5-1.5v-9.247a1.5 1.5 0 00-1.5-1.5zm-1.5 9.247h-6.249v-6.247h6.249v6.247zM55.021 59.848h-9.246a1.5 1.5 0 00-1.5 1.5v9.247a1.5 1.5 0 001.5 1.5h9.246a1.5 1.5 0 001.5-1.5v-9.247a1.5 1.5 0 00-1.5-1.5zm-1.5 9.247h-6.246v-6.247h6.246v6.247zM65.884 38.578a1.5 1.5 0 00-1.5 1.5v9.247a1.5 1.5 0 001.5 1.5h9.249a1.5 1.5 0 001.5-1.5v-9.247a1.5 1.5 0 00-1.5-1.5h-9.249zm7.749 9.247h-6.249v-6.247h6.249v6.247z"/>
</svg>
