<svg xmlns="http://www.w3.org/2000/svg" data-name="Слой 2" viewBox="0 0 101 101" fill="#1761a0">
  <path d="M73.5 39c0-5.42-11.65-8.25-23.17-8.25S27.17 33.53 27.17 39c0 5.21 10.77 8 21.83 8.24V82.5a1.5 1.5 0 003 0V47.18c10.94-.26 21.5-3.07 21.5-8.18zm-43.33 0c0-1.78 7.12-5.25 20.17-5.25S70.5 37.17 70.5 39s-7.12 5.25-20.17 5.25S30.17 40.74 30.17 39zM29.35 56H15c-.14-5.44-.86-24-4.14-30.2a1.5 1.5 0 10-2.65 1.4C11.62 33.71 12 57.28 12 57.52v24a1.5 1.5 0 003 0V69h17v12.5a1.5 1.5 0 003 0V61.65A5.66 5.66 0 0029.35 56zM15 66v-7h14.35A2.65 2.65 0 0132 61.65V66zM92.2 25.17a1.5 1.5 0 00-2 .62C86.89 32 86.17 50.56 86 56H71.65A5.66 5.66 0 0066 61.65V81.5a1.5 1.5 0 003 0V69h17v12.5a1.5 1.5 0 003 0v-24c0-.24.38-23.81 3.83-30.32a1.5 1.5 0 00-.63-2.01zM69 66v-4.35A2.65 2.65 0 0171.65 59H86v7z"/>
</svg>
