<svg xmlns="http://www.w3.org/2000/svg" data-name="Слой 1" viewBox="0 0 101 101" fill="#1761a0">
  <path d="M94.88 46.45l-7.95-18.54A6.45 6.45 0 0081 24H11.39A4.39 4.39 0 007 28.39V71.5A1.5 1.5 0 008.5 73h10.7a10 10 0 0019.6 0h25.4a10 10 0 0019.6 0h9.7a1.5 1.5 0 001.5-1.5V47a1.51 1.51 0 00-.12-.55zM84.17 29.09L91 45H70V27h11a3.45 3.45 0 013.17 2.09zM11.39 27H67v18H10V28.39A1.39 1.39 0 0111.39 27zM29 78a7 7 0 117-7 7 7 0 01-7 7zm45 0a7 7 0 117-7 7 7 0 01-7 7zm9.95-8a10 10 0 00-19.9 0h-25.1a10 10 0 00-19.9 0H10V48h82v22z"/>
</svg>
