<svg xmlns="http://www.w3.org/2000/svg" data-name="Слой 2" viewBox="0 0 101 101" fill="#1761a0">
  <path d="M87.56 64l-19.9 11.79L60.08 71h9.53a5.5 5.5 0 000-11H53.24a15.19 15.19 0 00-5.51 1L35 66.78V65.5a1.5 1.5 0 00-1.5-1.5h-11a1.5 1.5 0 00-1.5 1.5v25a1.5 1.5 0 001.5 1.5h11a1.5 1.5 0 001.5-1.5V89h31.09a9.32 9.32 0 005.48-1.77L92.83 72a4.83 4.83 0 00-5.27-8zM32 89h-8V67h8zm59.09-19.39L69.82 84.8a6.35 6.35 0 01-3.73 1.2H35V70.07l13.88-6.27a12.13 12.13 0 014.36-.8h16.37a2.5 2.5 0 010 5H54.9a1.5 1.5 0 00-.8 2.77l12.73 8a1.5 1.5 0 001.57 0l20.7-12.29a1.83 1.83 0 012 3.06zM94.5 52H91a38.55 38.55 0 00-33.65-37.18 6.5 6.5 0 10-9.69 0A38.54 38.54 0 0014 52H9.5a1.5 1.5 0 000 3h85a1.5 1.5 0 000-3zm-42-45a3.5 3.5 0 11-3.5 3.5A3.5 3.5 0 0152.5 7zm0 10.5A35.53 35.53 0 0188 52H17a35.53 35.53 0 0135.5-34.5z"/>
  <path d="M44.44 24.61a29.46 29.46 0 00-18.8 16.17A1.5 1.5 0 1028.37 42a26.47 26.47 0 0116.89-14.5 1.5 1.5 0 10-.82-2.89z"/>
</svg>
